<svg xmlns="http://www.w3.org/2000/svg" width="5333.3333333" height="5333.3333333" version="1" viewBox="0 0 4000 4000">
  <path d="M.1 1999.2L0 3999h20.4c20.6 0 49.6-1.2 75.1-3 139.3-10.3 274.1-43.8 394-98 308.4-139.6 518.5-408.8 580.4-744 14-76 19.9-148 18.8-230-.7-51.8-3.1-87.5-9.2-135.7-26.1-206-101.8-422.8-252-721.8-49.2-97.9-79.6-155.2-211.7-399.5-140.7-260.1-217.8-411.9-291.3-573.5C186.4 789.8 94.1 512.4 38.6 234 23.9 160.2 15.4 108.7 1.6 9.5.5 1 .2 289.5.1 1999.2zM3595 509.6c-14.9 3.9-26.4 13.2-33 26.8-12.6 25.5-3.3 56.6 20.7 69.3 7.9 4.3 16.8 6.3 27.8 6.3 24.1 0 42.4-12.2 50.1-33.5 6.9-19.1 2.2-41.7-11.7-55.6-6.4-6.4-16.8-12-25.7-13.8-7.3-1.5-21.6-1.3-28.2.5zm-331.2 182.5l-.3 172.1-7-8.3c-10.3-12.3-28.5-30.2-40.5-39.8-15.2-12.3-29.3-21.2-47.5-30.1-35.8-17.6-69.9-25.6-114.6-26.7-52.5-1.3-95.3 7.8-136.9 29.4-90.9 47-151.4 149.4-168.9 285.8-4.2 32.7-4.6 40.8-4.6 90 0 51.4.8 63.2 6.1 100.5 16.8 118 65.2 207.9 137.8 256.1 29.5 19.6 64.1 32.8 100.6 38.5 14.2 2.2 55.1 3 71.7 1.5 34.4-3.3 64.5-11.7 93.6-26.2 42.4-21 78.7-54.5 106.4-98.2 3.4-5.5 6.3-9.6 6.3-9 0 .5 1.6 26.5 3.5 57.9 1.9 31.3 3.5 57.7 3.5 58.6 0 1.7 2.1 1.8 30 1.8h30v-508.5c0-279.7-.3-508.5-.6-508.5-1 0-61.8-8-65.1-8.5l-3.3-.6-.2 172.2zm-189.3 126.4c13 .8 26.1 3.1 41.3 7 53.3 14 99.2 47.5 139.1 101.4l9.1 12.4v410.3l-6.6 11.4c-43.7 75.9-93.8 118.8-156.7 134-19.3 4.7-30.7 6.1-53.3 6.7-37.9 1-65.1-4.3-93.9-18.2-84.9-41-133.7-146.9-138.4-300.4-2.3-75.9 5.8-139.5 24.8-195.3 35.2-103.1 106.8-164 199.1-169.7 12.2-.8 17-.7 35.5.4zM1253 749.1c-52.4 2.9-98.2 20.6-140 53.9-19.8 15.8-42.4 40.2-59.4 64.3-3.8 5.3-7.2 9.7-7.5 9.7-.4 0-3.1-23.1-6-51.3-2.9-28.1-5.5-53.1-5.8-55.5l-.6-4.2H916v780h137V993.3l12.1-18.4c21.1-31.9 35.9-50.8 53.6-68.4 36.3-35.9 76.1-52.1 123.3-50.2 52.5 2.2 85.7 33.6 97.5 92.1 5.1 25.4 4.8 12.1 5.2 313.8l.3 283.8h137V993l11.9-17.8c50-74.9 87.3-106 139.6-116.4 14.8-3 43.7-3.2 56.5-.5 42.1 9.1 68 39.3 78.4 91.7 1.4 6.9 3 17.4 3.5 23.4.8 7.4 1.1 101 1.1 291.8V1546h137v-291.3c0-247.8-.2-293.2-1.5-304.7-11-102.4-65.8-172.5-151.9-194.5-34.3-8.7-78.7-9.1-115.6-.9-34.6 7.7-69.9 25-100 49-20 16-49.1 48-66.6 73.4-3.8 5.4-7.1 9.9-7.4 10-.3 0-1.8-3.5-3.4-7.8-9.6-26-25.9-52.2-44.6-71.6-40.7-42.3-97.8-62.4-166-58.5zm773 97.1c14.9 44.2 78.5 233.3 141.4 420.3l114.4 340-5.6 10.5c-16.6 31.4-35.2 55.7-56 73-35.1 29.5-81.1 48.8-144.2 60.6-8 1.5-14.8 3-15.2 3.3-.8.7 13.6 105.8 14.5 106.8.9.9 30.4-3.4 49.7-7.3 40.2-8 73.7-18.9 105.5-34.4 90.4-44.1 152.4-119.2 196.8-238 5.8-15.7 270.7-812.4 270.7-814.3 0-.4-31.8-.6-70.7-.5l-70.7.3-101.6 339-101.7 339-1.8-5.5c-.9-3-47.7-155.6-103.9-339l-102.2-333.5-73.2-.3-73.1-.2 26.9 80.2zM3576 1160v386h69V774h-69v386zM1360.4 3507.9c-6.4 3.9-7.2 14.2-1.4 19.3 2.5 2.3 4 2.8 8.1 2.8 9 0 12.8-3.5 12.9-11.9 0-4.7-.4-5.7-3.4-8.7-2.9-2.9-4.1-3.4-8.2-3.4-3 0-6.1.7-8 1.9zm532 0c-6.4 3.9-7.2 14.2-1.4 19.3 2.5 2.3 4 2.8 8.1 2.8 9 0 12.8-3.5 12.9-11.9 0-4.7-.4-5.7-3.4-8.7-2.9-2.9-4.1-3.4-8.2-3.4-3 0-6.1.7-8 1.9zm-74.2.8l-4.2.4.2 97.7c.3 88.6.5 98 2 101.2 4.6 9.7 11.8 14 23.9 14 7.2 0 17.9-2.3 17.9-3.8 0-.4-1-3.5-2.2-7-1.8-4.8-2.6-6.1-3.8-5.5-.8.4-4.2.9-7.5 1.1-7.9.5-10.9-1.7-12.4-8.9-.7-3.4-1.1-35-1.1-97.4V3508l-4.2.2c-2.4.1-6.2.3-8.6.5zm171.7 1.1c-10.8 3.6-18.2 10.4-22.2 20.6-1.8 4.3-2.2 7.9-2.5 22.8l-.4 17.8H1939v14h26v134h17v-134h18.4c20.6 0 19 .7 20.1-8.3l.7-5.7h-39.5l.5-16c.4-15.2.6-16.2 3.4-21.7 2.4-4.7 3.8-6.1 7.9-8.2 4.4-2.3 6.1-2.6 15-2.5 8.4 0 11.3.5 18.6 3.1l8.6 3 2.7-5.4c3.3-6.7 3.3-7.7-.1-9.3-8.4-3.9-15.1-5.2-28.8-5.6-11.7-.3-14.9-.1-19.6 1.4zm845.4-1.1l-4.3.4V3719h17v-107.2l4.4-5.6c7.1-9.3 15.9-17 23.3-20.5 6.2-2.9 7.6-3.2 16.8-3.2 8.3 0 10.7.4 14 2.2 7.9 4.2 11.9 11.2 13.5 23.5.5 4 1 30.6 1 59v51.8h17v-56.4c0-31-.4-58.5-.9-61.2-2.8-14.5-10.1-24.9-21.3-30-5.5-2.4-7.8-2.9-17.4-3.2-18.2-.7-29.4 3.8-42.6 17l-7.8 7.7V3508l-4.2.2c-2.4.1-6.2.3-8.5.5zm-93 25.5l-7.3 1v35.8h-25v14h24.9l.3 56.2.3 56.3 2.6 5.5c3.6 7.7 8 12.4 14.7 15.7 5.4 2.7 6.4 2.8 19.2 2.8 14.2-.1 19.2-1.3 27.8-6.5l3.3-2-3.3-6.1c-2.2-4.1-3.8-5.8-4.8-5.5-.8.2-4.2 1.6-7.5 3-6.9 2.9-18.3 3.5-23.8 1.2-4.9-2-9.3-7.7-10.6-13.6-.7-3.3-1.1-22.8-1.1-56v-51h35.8l.6-2.8c.3-1.5.8-4.6 1.1-7l.7-4.2H2752v-19c0-14.6-.3-19-1.2-18.9-.7.1-4.6.6-8.5 1.1zm-1487.1 35.4c-14.2 3.8-26.1 13.3-30.2 24.1-1.8 4.9-2.1 7.3-1.8 15.3.3 8.2.8 10.2 3.3 14.9 1.6 2.9 4.8 6.9 7 8.8 5.8 5 18.1 10.6 32.2 14.7 29.5 8.6 37.6 14.1 39.2 26.8 2.7 21.1-10.9 33.4-36.9 33.1-13.3-.1-23.4-3.1-34.5-10.4l-7.7-5-3.7 4.2c-5.8 6.7-5.8 6.9-2 10.2 5.3 4.4 15.3 9.7 23.7 12.5 10.3 3.3 33.2 4.3 43.2 1.8 16.3-4.1 29.4-14.2 34.1-26.3 2.9-7.6 3.2-22.3.6-29.8-5.2-14.8-16.2-22.1-46.7-31-20.8-6-29.5-10.9-32.7-18.4-1.9-4.3-1.9-12.8 0-17.3 4.8-11.6 22.2-18 40.3-14.9 8 1.4 14.4 4 23.1 9.2l6.3 3.7 4-5.6 4.1-5.7-3.3-2.7c-4.6-4-18.2-10.4-25.9-12.2-8.3-2-28.3-2-35.7 0zm217.3.1c-10.3 3.7-19.2 10.3-26.5 19.5l-3.7 4.6-.7-6.6c-.3-3.7-.6-8.8-.6-11.5v-4.7h-15v148h17v-107.5l6.4-8.5c10.3-13.7 19.8-19.9 31.9-20.8 12.6-.9 20.9 4.6 24.9 16.7 2.2 6.4 2.2 8.1 2.6 63.3l.3 56.8h16.9v-107.2l4.4-6.2c10.3-14.4 22.1-22.5 33.9-23.4 12.6-.9 20.9 4.6 24.9 16.7 2.2 6.4 2.2 8.1 2.6 63.3l.3 56.8h17l-.3-59.8-.3-59.7-2.6-6.8c-4.5-11.4-8.8-16.4-18.9-21.8-4.1-2.2-5.7-2.4-17-2.4-12.3 0-12.6.1-20 3.6-8 3.8-16 10.4-22.1 18.1l-3.8 4.8-2.6-5.7c-3.7-8.2-8.5-13.5-15.7-17.3-5.9-3.2-7-3.5-17.3-3.7-8.6-.3-12.1.1-16 1.4zm230.5.6c-9.1 3.1-14.8 6.7-21.8 13.6l-5.9 6-.7-5.2c-.3-2.9-.6-7.1-.6-9.5v-4.2h-15v206h2.4c1.2 0 5.1-.3 8.5-.6l6.1-.7v-71.9l5.6 5.2c10.3 9.4 20.4 13 36 13 19.8 0 33-7 43.4-23.2 7.7-11.9 11.7-27.2 12.7-48.3 1.9-44.7-12-74.2-38.2-81-9.1-2.3-24.5-2-32.5.8zm24 13.3c7.7 2.3 13.6 6.7 18 13.6 7.4 11.3 10.1 24.3 10.1 47.3-.1 25.1-4.5 41.5-14 51.7-11.1 12.1-29.5 14.9-45.6 6.8-6.4-3.2-9.8-6-15.7-13l-3.8-4.4v-78.5l5.1-6.1c13.1-15.7 30-22.1 45.9-17.4zm602.5-13.9c-10.3 3.7-19.2 10.3-26.5 19.5l-3.7 4.6-.7-6.6c-.3-3.7-.6-8.8-.6-11.5v-4.7h-15v148h17v-107.5l6.4-8.5c10.3-13.7 19.8-19.9 31.9-20.8 12.6-.9 20.9 4.6 24.9 16.7 2.2 6.4 2.2 8.1 2.6 63.3l.3 56.8h16.9v-107.2l4.4-6.2c10.3-14.4 22.1-22.5 33.9-23.4 12.6-.9 20.9 4.6 24.9 16.7 2.2 6.4 2.2 8.1 2.6 63.3l.3 56.8h17l-.3-59.8-.3-59.7-2.6-6.8c-4.5-11.4-8.8-16.4-18.9-21.8-4.1-2.2-5.7-2.4-17-2.4-12.3 0-12.6.1-20 3.6-8 3.8-16 10.4-22.1 18.1l-3.8 4.8-2.6-5.7c-3.7-8.2-8.5-13.5-15.7-17.3-5.9-3.2-7-3.5-17.3-3.7-8.6-.3-12.1.1-16 1.4zm692.2-.2c-14.6 4-26.7 14.6-34.2 29.8-6.9 14.1-8.6 22-9.2 42.7-.8 25.4 2.3 39.4 11.7 54.4 7.6 12 18.4 19.9 32.4 23.6 6.9 1.9 9.9 2.2 21.6 1.8 11.3-.4 14.7-.9 20.8-3 6.9-2.5 17.8-8.4 23.1-12.6l2.4-1.9-3.4-4.9c-1.9-2.6-3.7-5.2-4.1-5.8-.3-.5-3.5.9-7.2 3.3-17.9 11.7-37.4 14-53.5 6.4-13.8-6.6-23-22.8-25.6-45.1l-.7-6.2h99.2v-13.8c0-37.8-14.3-61.6-41.1-68.7-6.7-1.8-25.6-1.8-32.2 0zm26.4 13.9c18.7 4.3 28.2 19.3 30.3 47.3l.6 8.3h-83.2l.7-7.3c3.6-35.9 23.8-54.9 51.6-48.3zm128.8-13.1c-10.7 4.5-16.4 10.2-22.2 22.4l-3.4 7.1-.7-8.1c-.3-4.5-.6-11-.6-14.5v-6.2h-15v148h17v-91.2l3-9.1c5.8-17 12.9-27 22.8-31.9 3.7-1.8 6.4-2.3 12.7-2.3 4.4 0 9.4.3 11.1.7l3 .7 1.6-8.2c.9-4.5 1.4-8.4 1.1-8.7-.3-.3-5.9-.6-12.6-.8-10.9-.2-12.8 0-17.8 2.1zm85.9-.8c-7.8 1.6-22.6 6-24.7 7.4-1.3.8-1.2 1.8.4 7.1 1 3.3 2.2 6.3 2.6 6.5.4.3 2.3-.2 4.3-1 8.8-3.7 25-6.8 35.6-6.9 17.1-.1 26.1 4.5 31.1 15.7 1.9 4.3 2.3 7.4 2.7 18.3l.4 13.2-23.3.5c-20.2.4-24.4.7-30.7 2.6-18 5.3-29.3 15.4-33.6 30-2.4 8.1-2.1 23.4.5 31.4 3.7 11.4 12.3 20.4 23.6 24.8 7.2 2.8 25.6 3.8 34.3 1.9 11.2-2.5 22.8-9.8 28.5-18l2.9-4.1 1.1 4.5c2.4 9.4 10.5 17.1 19.3 18.3l3.7.5 1.7-5.9c1.6-5.3 1.6-5.9.1-6.8-4.4-2.7-7.2-5.9-8.9-9.7-1.6-3.9-1.9-9-2.4-52.8-.5-47-.6-48.7-2.8-54-4.4-11.2-11.5-18-23-22.2-7.4-2.7-32.9-3.5-43.4-1.3zm52.2 92.8c0 20.2 0 20.2-2.6 24.2-3.8 5.8-11.3 13.2-15.9 15.9-9.2 5.4-23 7.1-33.2 4.1-22.1-6.6-26.3-42.1-6.7-55.6 9.3-6.4 20.2-8.5 45.2-8.8l13.2-.1v20.3zm111-92c-9.1 3.1-14.8 6.7-21.8 13.6l-5.9 6-.7-5.2c-.3-2.9-.6-7.1-.6-9.5v-4.2h-15v206h2.4c1.2 0 5.1-.3 8.5-.6l6.1-.7v-71.9l5.6 5.2c10.3 9.4 20.4 13 36 13 19.8 0 33-7 43.4-23.2 7.7-11.9 11.7-27.2 12.7-48.3 1.9-44.7-12-74.2-38.2-81-9.1-2.3-24.5-2-32.5.8zm24 13.3c7.7 2.3 13.6 6.7 18 13.6 7.4 11.3 10.1 24.3 10.1 47.3-.1 25.1-4.5 41.5-14 51.7-11.1 12.1-29.5 14.9-45.6 6.8-6.4-3.2-9.8-6-15.7-13l-3.8-4.4v-78.5l5.1-6.1c13.1-15.7 30-22.1 45.9-17.4zM1360 3645v74h17v-148h-17v74zm532 0v74h17v-148h-17v74zm149.1-72.8c0 .7 11.4 33.9 25.3 73.8 24.7 71.2 25.2 72.5 27.9 72.8 3.2.4 3.2.6-1.2 11.3-7.1 17-16.7 25.7-34.6 31.5-7.7 2.5-7.6 2.1-5.9 12.1.6 4 1.9 4.1 11.8 1.2 15.7-4.6 29.5-14.7 37.4-27.2 7.2-11.5 5.7-7.2 50.9-140.2 6.4-18.7 11.8-34.6 12-35.3.4-.9-1.8-1.2-8.8-1.2h-9.4l-16.5 51.3c-9 28.1-18.7 58.2-21.5 66.9l-5.1 15.6-21.9-66.9-22-66.9h-9.2c-6.8 0-9.3.3-9.2 1.2zm451 0c0 .7 11.4 33.9 25.3 73.8 24.7 71.2 25.2 72.5 27.9 72.8 3.2.4 3.2.6-1.2 11.3-7.1 17-16.7 25.7-34.6 31.5-7.7 2.5-7.6 2.1-5.9 12.1.6 4 1.9 4.1 11.8 1.2 15.7-4.6 29.5-14.7 37.4-27.2 7.2-11.5 5.7-7.2 50.9-140.2 6.4-18.7 11.8-34.6 12-35.3.4-.9-1.8-1.2-8.8-1.2h-9.4l-16.5 51.3c-9 28.1-18.7 58.2-21.5 66.9l-5.1 15.6-21.9-66.9-22-66.9h-9.2c-6.8 0-9.3.3-9.2 1.2zm1024 0c0 .7 11.4 33.9 25.3 73.8 24.7 71.2 25.2 72.5 27.9 72.8 3.2.4 3.2.6-1.2 11.3-7.1 17-16.7 25.7-34.6 31.5-7.7 2.5-7.6 2.1-5.9 12.1.6 4 1.9 4.1 11.8 1.2 15.7-4.6 29.5-14.7 37.4-27.2 7.2-11.5 5.7-7.2 50.9-140.2 6.4-18.7 11.8-34.6 12-35.3.4-.9-1.8-1.2-8.8-1.2h-9.4l-16.5 51.3c-9 28.1-18.7 58.2-21.5 66.9l-5.1 15.6-21.9-66.9-22-66.9h-9.2c-6.8 0-9.3.3-9.2 1.2zm133.8 126.7c-3.5 3.5-3.9 4.4-3.9 9 0 9.4 4.5 14.1 13.5 14.1 8.8 0 13.5-4.7 13.5-13.5 0-9-4.7-13.5-14.1-13.5-4.6 0-5.5.4-9 3.9z"/>
</svg>
